# xmcd CD database file
#
# Track frame offsets:
#	150
#	54870
#	104154
#	132476
#	154748
#	180104
#	262290
#	311318
#
# Disc length: 4608 seconds
#
# Revision: 0
# Processed by: cddbd v1.5.2PL0 Copyright (c) Steve Scherf et al.
# Submitted via: CDex 1.51
#
DISCID=6811fe08
DTITLE=John Coltrane - Soultrane and Olé Coltrane
DYEAR=1900
DGENRE=Jazz
TTITLE0=Good Bait
TTITLE1=I Want To Talk About You
TTITLE2=You Say You care
TTITLE3=Theme For ernie
TTITLE4=Russian Lullaby
TTITLE5=Olé
TTITLE6=Dahomey dance
TTITLE7=Aisha
EXTD=
EXTT0=
EXTT1=
EXTT2=
EXTT3=
EXTT4=
EXTT5=
EXTT6=
EXTT7=
PLAYORDER=
